<svg id="Layer_2" data-name="Layer 2" xmlns="http://www.w3.org/2000/svg" viewBox="0 0 510.83 859.94"><defs><style>.cls-1{fill:#ccc;}.cls-1,.cls-2,.cls-3,.cls-4,.cls-5{stroke:#000;stroke-miterlimit:10;}.cls-2{fill:#c1272d;}.cls-3{fill:#fbb03b;}.cls-4{fill:#fff;}</style></defs><title>clucker</title><path class="cls-1" d="M375.3,506.24a49.2,49.2,0,0,1,33.78,39.55L428.5,674.5l20,150,14,94,14.88,96.73a49.2,49.2,0,0,1,.06,14.55L472.33,1065A49.2,49.2,0,0,1,454,1096.65L417.87,1125a49.2,49.2,0,0,1-30.37,10.49H317.15a49.2,49.2,0,0,1-32.61-12.36l-36.16-32a49.2,49.2,0,0,1-14.78-23.63l-12.42-44.55a49.2,49.2,0,0,1-1.11-5L204.5,926.5l-15-72-31-119-15.62-65.06a49.2,49.2,0,0,1-.62-20l10.6-60.31a49.2,49.2,0,0,1,21-32.31l32.22-21.66a49.2,49.2,0,0,1,18.37-7.53l126.88-23.84a49.2,49.2,0,0,1,24,1.45Z" transform="translate(-67.23 -276.06)"/><path class="cls-2" d="M476.22,861l9-4.72a9.75,9.75,0,0,0,5.24-8.65V820.82a9.75,9.75,0,0,0-.35-2.6L477.5,772.5l-29.93-96a9.75,9.75,0,0,0-15.08-5h0a9.75,9.75,0,0,0-4,7.87v83.44A9.75,9.75,0,0,0,429,766l24.76,72.45a9.75,9.75,0,0,0,.55,1.29l8.69,17A9.75,9.75,0,0,0,476.22,861Z" transform="translate(-67.23 -276.06)"/><path class="cls-3" d="M328.44,701.64l71-35.16a30.19,30.19,0,0,1,24.56-1l71,28.23a30.19,30.19,0,0,1,8.23,4.91l25.92,21.71a30.19,30.19,0,0,1,9.81,15.46h0a30.19,30.19,0,0,1-21,36.75l-1.35.38a30.19,30.19,0,0,0-4,1.45l-50,22.13-31.65,14.38a30.19,30.19,0,0,1-24.76.1l-53.21-23.65a30.19,30.19,0,0,1-10.88-8.2l-22.12-26.4a30.19,30.19,0,0,1-6.1-11.87l-1.2-4.66A30.19,30.19,0,0,1,328.44,701.64Z" transform="translate(-67.23 -276.06)"/><path class="cls-3" d="M323.74,707.57l240.33-14.73a14.36,14.36,0,0,0,9.28-4.18h0a14.36,14.36,0,0,0,0-20.31l-43.08-43.08a14.36,14.36,0,0,0-4-2.83l-51-24.12a14.36,14.36,0,0,0-3.59-1.15l-68.87-12.43a14.36,14.36,0,0,0-2.55-.23h-18a14.36,14.36,0,0,0-11,5.12l-31.73,37.74a14.36,14.36,0,0,0-1.67,2.46L310.2,681.32a14.36,14.36,0,0,0-1.7,6.78v5.13A14.36,14.36,0,0,0,323.74,707.57Z" transform="translate(-67.23 -276.06)"/><path class="cls-4" d="M234.45,655.18l16.8-27.37a22.05,22.05,0,0,0,3.26-11.53V593.55a22.05,22.05,0,0,0-22.05-22.05h0a22.05,22.05,0,0,0-9.42,2.12L186.88,590.7a22.05,22.05,0,0,0-12.47,22.59l3.88,32a22.05,22.05,0,0,0,20.49,19.35l15.47,1A22.05,22.05,0,0,0,234.45,655.18Z" transform="translate(-67.23 -276.06)"/><path class="cls-5" d="M211.66,630.54l10.63-8.08A13.19,13.19,0,0,0,227.5,612v-1.39a13.19,13.19,0,0,0-18.42-12.1l-10.63,4.6a13.19,13.19,0,0,0-8,12.1V620a13.19,13.19,0,0,0,3.86,9.32h0A13.19,13.19,0,0,0,211.66,630.54Z" transform="translate(-67.23 -276.06)"/><path class="cls-2" d="M353.18,522.13l39.18-21.3a11.75,11.75,0,0,0,6.14-10.32v-157a11.75,11.75,0,0,0-.65-3.87L382.1,284.45a11.75,11.75,0,0,0-19.9-3.92l-6.76,7.64A11.75,11.75,0,0,0,352.5,296v43.23a11.75,11.75,0,0,1-.29,2.59l-.3,1.34c-2.76,12.19-20.13,12.21-22.92,0L327.12,335a11.75,11.75,0,0,0-14.1-8.83l-7.63,1.76a11.75,11.75,0,0,0-8.72,8.44L285.89,377a11.75,11.75,0,0,0-.39,3v28.22a11.75,11.75,0,0,1-16.61,10.7h0a11.75,11.75,0,0,1-6.63-8.24l-5-23.47a11.75,11.75,0,0,0-15.12-8.71l-20.57,6.69a11.75,11.75,0,0,0-8,9.62l-4.79,35.91a11.75,11.75,0,0,1-1,3.37L197.56,456.2a11.75,11.75,0,0,1-19,3.38l-9.35-9.35a11.75,11.75,0,0,0-16-.57l-19.34,16.76a11.75,11.75,0,0,0-3.42,5.07l-10.56,30.81a11.75,11.75,0,0,1-1.06,2.27L97,540.64a11.75,11.75,0,0,0-.89,1.8l-27.6,70.42a11.75,11.75,0,0,0-.75,5.47l6.27,61.81a11.75,11.75,0,0,0,3.64,7.37l59,55.49a11.75,11.75,0,0,0,11.14,2.78l17-4.63a11.75,11.75,0,0,0,8.59-12.61L164.55,647q-.05-.48-.15-1l-10.34-53.45a11.75,11.75,0,0,1,5.49-12.31l40.16-24.09a11.75,11.75,0,0,1,6-1.67h98.92a11.75,11.75,0,0,0,6.91-2.25L351.88,523A11.75,11.75,0,0,1,353.18,522.13Z" transform="translate(-67.23 -276.06)"/><path class="cls-2" d="M422.15,584l-2.62-3.55a14,14,0,0,0-16.74-4.55L388.28,582a14,14,0,0,0-7.78,8.43l-35,104.76a14,14,0,0,0-.66,3.08L334.81,802.26a14,14,0,0,0,.84,6.29L366.41,890a14,14,0,0,0,7.52,7.89l5,2.17a14,14,0,0,0,19.55-12.83h0a14,14,0,0,0-1-5.19l-16-40a14,14,0,0,1-1-5.19V696a14,14,0,0,1,1.66-6.6l36.91-68.94a14,14,0,0,0,1.4-4l4.17-21.61A14,14,0,0,0,422.15,584Z" transform="translate(-67.23 -276.06)"/></svg>